<svg aria-hidden="true" style="position:absolute;width:0;height:0" xmlns="http://www.w3.org/2000/svg" overflow="hidden">
<defs>
<symbol id="icon-github" viewBox="0 0 32 32">
<path d="M16 2C8.269 2 2 8.425 2 16.356c0 6.344 4.013 11.719 9.575 13.619.7.131.956-.313.956-.694 0-.344-.012-1.244-.019-2.444-3.894.869-4.719-1.925-4.719-1.925-.638-1.656-1.556-2.1-1.556-2.1-1.269-.894.094-.875.094-.875 1.406.1 2.144 1.481 2.144 1.481 1.25 2.194 3.275 1.563 4.075 1.194.125-.925.488-1.563.887-1.919-3.106-.363-6.375-1.594-6.375-7.094 0-1.569.544-2.85 1.438-3.85-.144-.363-.625-1.825.137-3.8 0 0 1.175-.388 3.85 1.469a13.098 13.098 0 013.506-.481c1.188.006 2.387.162 3.506.481 2.675-1.856 3.844-1.469 3.844-1.469.762 1.975.281 3.438.137 3.8.894 1.006 1.438 2.287 1.438 3.85 0 5.513-3.275 6.725-6.394 7.081.5.444.95 1.319.95 2.656 0 1.919-.019 3.469-.019 3.938 0 .381.25.831.962.688 5.575-1.894 9.581-7.269 9.581-13.606 0-7.931-6.269-14.356-14-14.356z"/>
</symbol>
<symbol id="icon-phone" viewBox="0 0 32 32">
<path d="M16 1.6c7.94 0 14.4 6.46 14.4 14.4S23.94 30.4 16 30.4 1.6 23.94 1.6 16 8.06 1.6 16 1.6zM16 0C7.164 0 0 7.163 0 16s7.164 16 16 16c8.838 0 16-7.162 16-16S24.838 0 16 0z"/>
<path d="M11.497 7.834c.966-.182 1.598.906 2.08 1.658.469.73 1.046 1.586.813 2.535-.13.533-.611.823-.975 1.138-.359.31-.906.595-1.039 1.072-.217.774.258 1.586.551 2.048a11.854 11.854 0 002.483 2.811l.021.016c.498.408 1.19.953 1.884.813 1.036-.21 1.31-1.487 2.438-1.658 1.074-.162 1.8.616 2.406 1.138.584.505 1.526 1.151 1.462 2.016-.038.497-.436.805-.782 1.105-.351.306-.659.65-1.006.877-.841.549-1.872.818-3.056.781-1.161-.036-2.086-.43-2.925-.878-1.641-.875-2.938-2.106-4.159-3.478-1.202-1.349-2.311-2.946-2.925-4.711-.766-2.205-.361-4.47.878-5.882.21-.24.541-.49.844-.748s.582-.571 1.007-.651z"/>
</symbol>
<symbol id="icon-email" viewBox="0 0 32 32">
<path d="M32 16c0 8.837-7.163 16-16 16S0 24.837 0 16 7.163 0 16 0s16 7.163 16 16z"/>
<path fill="#1d466c" d="M16 18.1l9.55-8.175c-.15-.1-.35-.175-.55-.175H7c-.2 0-.4.075-.55.175L16 18.1z"/>
<path fill="#1d466c" d="M16.65 18.85a.989.989 0 01-1.3 0L6 10.875V21.25c0 .55.45 1 1 1h18c.55 0 1-.45 1-1v-10.4l-9.35 8z"/>
</symbol>
<symbol id="icon-linkedin" viewBox="0 0 32 32">
<path d="M16 32C7.164 32 0 24.836 0 16S7.164 0 16 0s16 7.164 16 16-7.164 16-16 16zm0-1.92c7.776 0 14.08-6.304 14.08-14.08S23.776 1.92 16 1.92 1.92 8.224 1.92 16 8.224 30.08 16 30.08zM8.96 12.876h3.014v9.306H8.96v-9.306zm1.706-4.556c1.031 0 1.667.695 1.686 1.608 0 .893-.655 1.608-1.706 1.608h-.019c-1.012 0-1.667-.715-1.667-1.608 0-.913.674-1.608 1.706-1.608zm8.903 4.556c1.983 0 3.471 1.331 3.471 4.189v5.336h-3.014v-4.979c0-1.251-.436-2.104-1.528-2.104-.833 0-1.329.575-1.546 1.131-.08.2-.1.477-.1.755v5.197h-3.014s.04-8.433 0-9.306h3.014v1.318c.401-.634 1.117-1.537 2.717-1.537z"/>
</symbol>
<symbol id="icon-linkedin3" viewBox="0 0 32 32">
<path d="M30.743 9.773c-.806-1.905-1.959-3.617-3.428-5.086A15.95 15.95 0 0016.001 0 15.948 15.948 0 004.688 4.686 15.95 15.95 0 00.001 15.999a15.963 15.963 0 004.685 11.314A15.935 15.935 0 0016 32a15.948 15.948 0 0011.313-4.686A15.95 15.95 0 0032 16.001c0-2.16-.423-4.255-1.257-6.228zM16 30.51h-.001c-3.876 0-7.52-1.51-10.26-4.251s-4.25-6.385-4.249-10.261C1.49 7.997 8 1.489 16.001 1.489c3.876 0 7.52 1.51 10.26 4.251s4.25 6.385 4.249 10.261c0 8-6.51 14.509-14.51 14.509z"/>
<path d="M8.865 22.897h3.322l-.004-11.639H8.861zm14.779-8.525a5.243 5.243 0 00-.415-1.345 3.269 3.269 0 00-.438-.687 2.903 2.903 0 00-.749-.629 3.403 3.403 0 00-.767-.336 3.464 3.464 0 00-.478-.085c-.487-.055-.995-.028-1.484.009a7.544 7.544 0 00-.464.067l.047-.007a7.02 7.02 0 00-.46.092l.051-.01c-.238.073-.445.189-.622.341s-.324.34-.442.557a1.944 1.944 0 00-.165.394 1.275 1.275 0 00-.029.169h-.052l-.004-1.644h-3.321l.004 11.641h3.299v-7.097c0-.397.255-.727.582-.926.317-.192.709-.21 1.07-.233.165-.011.336-.005.5.012.285.029.571.119.784.318.355.332.41.839.41 1.298v6.628h3.268v-6.882c0-.549-.028-1.104-.123-1.646zM12.195 8.81a1.669 1.669 0 11-3.337 0 1.669 1.669 0 013.337 0z"/>
</symbol>
<symbol id="icon-github1" viewBox="0 0 32 32">
<path d="M18.508 22.136c3.118-.368 6.434-1.502 6.434-6.887 0-1.531-.539-2.778-1.417-3.742.142-.368.595-1.757-.171-3.684 0 0-1.134-.369-3.797 1.417-1.134-.311-2.381-.51-3.543-.51-1.191 0-2.438.199-3.544.51-2.693-1.785-3.826-1.417-3.826-1.417-.765 1.927-.311 3.316-.17 3.684-.879.964-1.417 2.211-1.417 3.742 0 5.385 3.316 6.519 6.434 6.887-.396.341-.765.992-.907 1.899-.794.34-2.863.992-4.11-1.162 0 0-.737-1.332-2.126-1.417 0 0-1.389-.028-.113.849 0 0 .935.426 1.559 2.041 0 0 .85 2.693 4.761 1.843v2.409c0 .369-.283.794-.992.681-5.556-1.843-9.552-7.114-9.552-13.293 0-7.738 6.263-14.001 14.002-14.001 7.709 0 14.001 6.264 13.973 14.001 0 6.178-3.997 11.422-9.552 13.293-.709.142-.992-.283-.992-.681v-3.882c0-1.305-.426-2.154-.935-2.58zM32 16.014C32 7.17 24.829 0 16.014 0 7.17 0 0 7.171 0 16.014 0 24.829 7.171 32 16.014 32 24.829 32 32 24.829 32 16.014z"/>
</symbol>
<symbol id="moon" viewBox="0 0 32 32">
<path fill="currentColor" d="M17.701 32a15.97 15.97 0 0012.429-5.925c.442-.544-.04-1.339-.723-1.209-7.763 1.478-14.891-4.474-14.891-12.31 0-4.514 2.416-8.665 6.344-10.9.605-.345.453-1.262-.235-1.389-.879-.17-1.89-.267-2.923-.268-8.832 0-16 7.157-16 16 0 8.832 7.157 16 16 16z"/>
</symbol>
<symbol id="sun" viewBox="0 0 32 32">
<path fill="currentColor" d="M16 10c-3.306 0-6 2.694-6 6s2.694 6 6 6 6-2.694 6-6-2.694-6-6-6zm15.4 5.031l-5.919-2.956L27.575 5.8c.281-.85-.525-1.656-1.369-1.369l-6.275 2.094L16.969.6c-.4-.8-1.537-.8-1.938 0l-2.956 5.919-6.281-2.094c-.85-.281-1.656.525-1.369 1.369l2.094 6.275L.6 15.032c-.8.4-.8 1.538 0 1.938l5.919 2.956-2.094 6.281c-.281.85.525 1.656 1.369 1.369l6.275-2.094 2.956 5.919c.4.8 1.538.8 1.938 0l2.956-5.919 6.275 2.094c.85.281 1.656-.525 1.369-1.369l-2.094-6.275 5.919-2.956c.813-.406.813-1.544.012-1.944zm-9.744 6.625c-3.119 3.119-8.194 3.119-11.313 0s-3.119-8.194 0-11.313c3.119-3.119 8.194-3.119 11.313 0s3.119 8.194 0 11.313z"/>
</symbol>
</defs>
</svg>